<svg width="50" height="50" viewBox="0 0 50 50" fill="none" xmlns="http://www.w3.org/2000/svg">
<g clip-path="url(#clip0_149:2)">
<path d="M29.1667 39.5833H20.8334C20.2584 39.5833 19.7917 40.05 19.7917 40.625C19.7917 41.2 20.2584 41.6667 20.8334 41.6667H29.1667C29.7417 41.6667 30.2084 41.2 30.2084 40.625C30.2084 40.05 29.7417 39.5833 29.1667 39.5833ZM29.1667 43.75H20.8334C20.2584 43.75 19.7917 44.2167 19.7917 44.7917C19.7917 45.3667 20.2584 45.8333 20.8334 45.8333H29.1667C29.7417 45.8333 30.2084 45.3667 30.2084 44.7917C30.2084 44.2167 29.7417 43.75 29.1667 43.75ZM29.6876 47.9167H20.3126L22.7876 49.5458C23.1084 49.8333 23.5793 50 24.0688 50H25.9334C26.4209 50 26.8938 49.8333 27.2147 49.5458L29.6876 47.9167ZM37.5001 19.1687C37.5001 26.6042 30.8043 31.6333 30.8043 37.5H26.6605C26.6542 33.6292 28.473 30.4396 30.2459 27.3604C31.8313 24.6 33.3334 21.9917 33.3334 19.1687C33.3334 13.7687 29.0105 11.3104 24.9938 11.3104C20.9834 11.3104 16.6667 13.7687 16.6667 19.1687C16.6667 21.9917 18.1688 24.6 19.7542 27.3604C21.5272 30.4396 23.348 33.6292 23.3376 37.5H19.1959C19.1959 31.6333 12.5001 26.6042 12.5001 19.1687C12.5001 11.4125 18.7459 7.14375 24.9938 7.14375C31.2459 7.14375 37.5001 11.4167 37.5001 19.1687ZM45.8334 17.7292V20.5875H40.5459C40.5876 20.1229 40.6251 19.6542 40.6251 19.1687C40.6251 18.675 40.5897 18.2021 40.5522 17.7312H45.8334V17.7292ZM23.6501 4.07708V0H26.5063V4.09167C26.0022 4.04583 25.498 4.01875 24.9938 4.01875C24.5459 4.01875 24.098 4.03958 23.6501 4.07708ZM15.8522 6.77292L13.6855 2.73125L16.2022 1.38125L18.3626 5.40833C17.4917 5.78542 16.6501 6.24375 15.8522 6.77292V6.77292ZM37.9063 10.3875L41.9522 7.48333L43.6168 9.80625L39.3376 12.875C38.9397 11.9792 38.4563 11.1521 37.9063 10.3875ZM31.6355 5.41042L33.798 1.38125L36.3147 2.73125L34.1459 6.775C33.3501 6.24583 32.5084 5.78958 31.6355 5.41042V5.41042ZM10.6605 12.875L6.38133 9.80833L8.04591 7.48542L12.0917 10.3875C11.5417 11.15 11.0605 11.9771 10.6605 12.875ZM39.2167 25.8396L44.1209 27.8271L43.0501 30.475L37.998 28.4292C38.4355 27.6021 38.848 26.7375 39.2167 25.8396V25.8396ZM11.9084 28.2458L7.00008 30.4542L5.82925 27.8479L10.7042 25.6562C11.0647 26.5583 11.4772 27.4167 11.9084 28.2458V28.2458ZM9.45425 20.5875H4.16675V17.7292H9.448C9.4105 18.2 9.37508 18.675 9.37508 19.1687C9.37508 19.6542 9.41258 20.1229 9.45425 20.5875V20.5875Z" fill="#23D997"/>
</g>
<defs>
<clipPath id="clip0_149:2">
<rect width="50" height="50" fill="white"/>
</clipPath>
</defs>
</svg>
