<svg width="192" height="193" viewBox="0 0 192 193" fill="none" xmlns="http://www.w3.org/2000/svg">
<path d="M0 109.123L1.19 108.963C3.99 129.703 13.32 148.513 28.16 163.353C51.15 186.343 83.87 195.933 115.68 188.993L115.94 190.173C83.73 197.203 50.6 187.493 27.32 164.213C12.28 149.173 2.84 130.123 0 109.123Z" fill="#23D997"/>
<path d="M27.3101 28.1325C64.8201 -9.3775 125.86 -9.3775 163.37 28.1325C200.88 65.6425 200.88 126.682 163.37 164.192L162.52 163.342C199.56 126.302 199.56 66.0225 162.52 28.9825C125.48 -8.0575 65.2001 -8.0575 28.1601 28.9825C16.9701 40.1725 8.69009 54.0625 4.24009 69.1425L3.09009 68.8025C7.60009 53.5325 15.9701 39.4725 27.3101 28.1325Z" fill="#23D997"/>
<path d="M75.1699 11.6025C104.79 4.5625 135.31 13.2025 156.81 34.7025L155.11 36.4025C134.21 15.5025 104.53 7.10249 75.7299 13.9425L75.1699 11.6025Z" fill="#23D997"/>
<path d="M33.88 34.7025C40.62 27.9625 48.32 22.4225 56.79 18.2325L57.86 20.3925C49.63 24.4625 42.14 29.8525 35.59 36.4025C4.79997 67.1925 2.30997 115.813 29.79 149.503L27.93 151.023C-0.350031 116.383 2.20997 66.3725 33.88 34.7025Z" fill="#23D997"/>
<path d="M45.89 164.723C61.98 176.363 81.81 181.942 101.73 180.442C121.86 178.922 140.81 170.223 155.1 155.933C166.63 144.403 174.54 129.913 177.95 114.033C181.93 95.5325 179.57 76.0125 171.3 59.0725L173.46 58.0125C181.97 75.4325 184.4 95.5025 180.3 114.533C176.79 130.863 168.66 145.763 156.79 157.623C142.09 172.323 122.6 181.272 101.89 182.832C81.41 184.372 61.01 178.633 44.46 166.663L45.89 164.723Z" fill="#23D997"/>
<path d="M50.9501 51.7725C75.43 27.2925 115.26 27.2925 139.74 51.7725C149.65 61.6825 155.83 74.2425 157.61 88.1025L155.22 88.4125C153.5 75.0825 147.56 63.0125 138.03 53.4825C114.49 29.9425 76.1901 29.9425 52.6501 53.4825C48.4701 57.6625 44.95 62.3925 42.17 67.5425L40.05 66.4025C42.94 61.0325 46.6001 56.1225 50.9501 51.7725Z" fill="#23D997"/>
<path d="M32.62 93.4125L35.03 93.5125C34.29 110.392 40.72 126.912 52.65 138.852C61.06 147.262 71.63 152.953 83.23 155.312L82.75 157.672C70.69 155.212 59.69 149.292 50.95 140.552C38.53 128.142 31.85 110.962 32.62 93.4125Z" fill="#23D997"/>
<path d="M102.2 156.153C115.88 154.593 128.27 148.613 138.03 138.863C146.58 130.313 152.32 119.533 154.61 107.703L156.97 108.163C154.59 120.463 148.63 131.673 139.73 140.563C129.58 150.713 116.7 156.923 102.47 158.543L102.2 156.153Z" fill="#23D997"/>
<path d="M58.5701 59.4025C64.5501 53.4225 71.9501 48.9525 79.9701 46.4825L80.3201 47.6325C72.4801 50.0525 65.2501 54.4125 59.4101 60.2525C43.2901 76.3725 39.8901 101.453 51.1401 121.243L50.0901 121.833C38.5901 101.573 42.0701 75.9025 58.5701 59.4025Z" fill="#23D997"/>
<path d="M95.3301 44.1725C109.22 44.1725 122.28 49.5825 132.11 59.4025C152.38 79.6725 152.38 112.662 132.11 132.932C111.84 153.202 78.8501 153.202 58.5801 132.932L59.4301 132.082C79.2301 151.882 111.46 151.882 131.26 132.082C151.06 112.282 151.06 80.0525 131.26 60.2525C121.66 50.6525 108.91 45.3725 95.3401 45.3725V44.1725H95.3301Z" fill="#23D997"/>
<path d="M72.4699 73.3025C85.0799 60.6925 105.6 60.6925 118.21 73.3025C130.82 85.9125 130.82 106.432 118.21 119.042L116.51 117.342C128.18 105.672 128.18 86.6825 116.51 75.0025C104.84 63.3325 85.8499 63.3325 74.1799 75.0025C62.5099 86.6725 62.5099 105.662 74.1799 117.332L72.4799 119.032C59.8599 106.422 59.8599 85.9125 72.4699 73.3025Z" fill="#23D997"/>
<path d="M83.9699 84.8025C90.2399 78.5325 100.44 78.5325 106.7 84.8025L105.85 85.6525C100.05 79.8525 90.6199 79.8525 84.8199 85.6525C79.0199 91.4525 79.0199 100.882 84.8199 106.682C90.6199 112.482 100.05 112.482 105.85 106.682C109.07 103.462 110.62 99.0225 110.11 94.4925L111.31 94.3525C111.86 99.2425 110.18 104.052 106.7 107.532C100.43 113.802 90.2299 113.802 83.9699 107.532C77.7099 101.262 77.7099 91.0725 83.9699 84.8025Z" fill="#23D997"/>
</svg>
