<svg width="115" height="115" viewBox="0 0 115 115" fill="none" xmlns="http://www.w3.org/2000/svg">
<path d="M52.8001 76.8969C50.5101 78.4269 48.1701 78.7269 45.9001 76.9669C43.6401 75.2169 43.4301 72.8369 44.3001 69.9069C41.3401 70.5469 38.6701 70.5269 36.9101 67.8869C35.4101 65.6269 35.7701 63.4069 37.2501 61.2769C37.4301 61.0969 37.6201 60.9169 37.8001 60.7369C38.8601 59.9769 40.0901 59.2369 41.3201 59.4869C43.5701 59.9369 43.1601 58.8969 43.2801 57.3069C43.4501 55.1169 43.2101 54.2169 40.7601 54.5669C39.8701 54.6969 38.8401 53.8969 37.8701 53.5269C37.6101 53.2669 37.3501 53.0069 37.0901 52.7469C35.7901 50.5669 35.3901 48.3369 36.9701 46.1369C38.7201 43.6869 41.2001 43.4769 44.2401 44.2969C43.4701 41.2969 43.5801 38.6669 46.2201 36.9269C48.4701 35.4369 50.6901 35.8169 52.8101 37.2869C52.9901 37.4669 53.1701 37.6569 53.3501 37.8369C53.7801 38.8969 54.7201 40.0469 54.5601 41.0169C54.1201 43.6169 55.3601 43.1469 57.1601 43.2969C59.3301 43.4769 59.5101 42.8869 59.4501 41.0369C59.4201 39.9869 60.2401 38.9169 60.6801 37.8569C60.8701 37.6569 61.0601 37.4669 61.2501 37.2669C63.5201 35.6669 65.8601 35.3969 68.1401 37.1369C70.4101 38.8669 70.6801 41.2369 69.8001 44.1469C72.6901 43.6469 75.3901 43.5269 77.1501 46.1869C78.6501 48.4469 78.3101 50.6569 76.8801 52.8169C76.6601 53.0369 76.4401 53.2469 76.2201 53.4669C75.1401 53.8869 74.0101 54.7569 73.0001 54.6369C70.8001 54.3869 70.8201 55.1669 70.8501 57.0369C70.8801 58.8469 70.7701 59.7169 73.0001 59.4669C74.0201 59.3569 75.1401 60.2269 76.2201 60.6469C76.4401 60.8669 76.6701 61.0869 76.8901 61.3169C78.4101 63.5869 78.7101 65.9269 76.9601 68.1869C75.2301 70.4269 72.8901 70.787 69.9601 69.827C70.5601 72.847 70.4601 75.6069 67.6601 77.3469C65.5201 78.6769 63.3901 78.3169 61.3501 77.0069C61.0701 76.7269 60.8001 76.4569 60.5201 76.1769C59.4401 74.5769 59.1601 72.7969 59.4601 70.9369C56.3901 70.5869 53.8401 70.6769 54.1501 74.7469C54.1901 75.2369 53.6501 75.7669 53.3701 76.2769C53.2001 76.4869 53.0001 76.6969 52.8001 76.8969ZM67.5101 67.5269C65.7501 66.4569 69.4501 63.0969 65.5201 63.0869C63.5101 63.0769 63.0501 63.7669 63.0601 65.6169C63.0901 69.5069 66.4001 65.8269 67.5101 67.5269ZM46.6601 67.577C47.7401 66.097 51.6701 69.5969 50.9901 64.8069C50.4501 60.9969 48.0201 63.997 46.6901 63.017C47.2301 64.597 46.6501 65.927 46.6601 67.577ZM67.6401 46.6669C62.9901 47.1469 63.1001 47.1669 62.9701 48.2469C62.5101 51.9969 65.3401 50.7169 67.5501 51.3069C66.8901 49.5669 67.4001 48.1469 67.6401 46.6669ZM46.6201 46.4669C46.8801 48.1569 47.0401 49.6169 46.7801 51.2469C48.0601 50.0969 50.6301 52.9369 51.0701 49.1569C51.6001 44.4869 47.6601 48.1969 46.6201 46.4669ZM55.2501 56.7769C55.3301 57.7769 54.5801 59.1869 56.6101 58.7969C57.6401 58.5969 58.9701 59.3269 58.7901 57.1869C58.6701 55.7369 58.6001 55.1669 56.9301 55.2769C55.6801 55.3469 54.7801 55.2269 55.2501 56.7769Z" fill="#23D997"/>
<path d="M53.3601 37.8469C53.1801 37.6669 53.0001 37.4769 52.8201 37.2969C52.7901 37.0669 52.8201 36.8069 52.7301 36.6069C51.5501 33.9969 51.5101 31.5269 53.9301 29.6269C55.9001 28.0769 58.1201 28.0669 60.1101 29.6069C62.5501 31.4969 62.5101 33.9669 61.3601 36.5769C61.2701 36.7869 61.2901 37.0369 61.2601 37.2669C61.0701 37.4669 60.8801 37.6569 60.6901 37.8569C58.2401 38.8469 55.8001 38.8169 53.3601 37.8469Z" fill="#23D997"/>
<path d="M76.9101 61.317C76.6901 61.097 76.4601 60.8769 76.2401 60.6469C75.2101 58.2569 75.2301 55.8569 76.2401 53.4669C76.4601 53.2469 76.6801 53.037 76.9001 52.817C77.6801 52.577 78.4401 52.2769 79.2401 52.1169C81.5001 51.6869 83.4501 52.2369 84.7501 54.2469C85.9401 56.0869 85.9401 58.0169 84.7601 59.8569C83.4701 61.8769 81.5201 62.4269 79.2601 61.9969C78.4501 61.8569 77.6901 61.557 76.9101 61.317Z" fill="#23D997"/>
<path d="M60.5501 76.1769C60.8301 76.4569 61.1001 76.7369 61.3801 77.0069C61.5301 77.5669 61.6801 78.1269 61.8301 78.6969C62.4601 81.0869 62.0801 83.2169 59.9601 84.6869C58.0101 86.0369 55.9201 86.0069 54.0001 84.6069C51.9201 83.0869 51.5901 80.947 52.2801 78.577C52.4401 78.017 52.6201 77.4569 52.7901 76.8969C52.9901 76.6869 53.1901 76.4869 53.4001 76.2769C55.7701 75.2769 58.1501 75.3069 60.5501 76.1769Z" fill="#23D997"/>
<path d="M37.8099 60.7469C37.6299 60.9269 37.44 61.1069 37.26 61.2869C34.4 62.1969 31.53 63.0169 29.4 59.9369C28.16 58.1469 28.13 56.1869 29.32 54.3469C31.35 51.1969 34.23 51.897 37.12 52.767C37.38 53.027 37.64 53.2869 37.9 53.5469C38.83 55.9469 38.7399 58.3469 37.8099 60.7469Z" fill="#23D997"/>
<path d="M85.3902 72.6169C85.4502 75.2669 83.0602 77.6569 80.4102 77.6069C77.9002 77.5569 75.6502 75.3169 75.6002 72.8069C75.5402 70.1469 77.9202 67.7669 80.5802 67.8269C83.0902 67.8669 85.3302 70.0969 85.3902 72.6169Z" fill="#23D997"/>
<path d="M33.61 77.5569C30.99 77.5869 28.63 75.1869 28.72 72.5769C28.8 70.0769 31.03 67.8869 33.53 67.8569C36.15 67.8269 38.5 70.2269 38.42 72.8369C38.34 75.3369 36.11 77.5369 33.61 77.5569Z" fill="#23D997"/>
<path d="M46.2599 80.3569C46.3599 82.9769 44.0299 85.3969 41.3899 85.3969C38.8999 85.3969 36.6299 83.2069 36.5299 80.7069C36.4299 78.0869 38.7699 75.6669 41.3999 75.6669C43.8899 75.6669 46.1599 77.8469 46.2599 80.3569Z" fill="#23D997"/>
<path d="M80.2201 46.3069C77.5701 46.1369 75.37 43.5869 75.63 40.9869C75.89 38.4669 78.2801 36.3969 80.7601 36.5569C83.4101 36.7269 85.6201 39.2769 85.3501 41.8769C85.0901 44.3969 82.7001 46.4569 80.2201 46.3069Z" fill="#23D997"/>
<path d="M33.4002 36.5769C35.8702 36.4769 38.2102 38.5769 38.4102 41.0869C38.6202 43.6769 36.3802 46.1769 33.7402 46.2869C31.1302 46.3869 28.7202 44.0569 28.7202 41.4269C28.7202 38.9369 30.9002 36.6769 33.4002 36.5769Z" fill="#23D997"/>
<path d="M77.5501 33.6269C77.5401 36.2769 75.1101 38.6069 72.4701 38.4869C69.9501 38.3669 67.7801 36.0969 67.7901 33.5869C67.8001 30.9369 70.2401 28.6069 72.8701 28.7269C75.3901 28.8469 77.5601 31.1269 77.5501 33.6269Z" fill="#23D997"/>
<path d="M41.4101 28.7569C44.0401 28.7669 46.3601 31.1969 46.2401 33.8069C46.1201 36.3069 43.8601 38.4769 41.3701 38.4569C38.7401 38.4469 36.4201 36.0169 36.5401 33.4069C36.6601 30.9069 38.9301 28.7469 41.4101 28.7569Z" fill="#23D997"/>
<path d="M77.5501 80.4669C77.5901 83.1069 75.1901 85.4769 72.5501 85.4069C70.0401 85.3369 67.82 83.0969 67.79 80.5869C67.75 77.9369 70.14 75.5769 72.79 75.6469C75.31 75.7169 77.5201 77.9569 77.5501 80.4669Z" fill="#23D997"/>
<path d="M44.6899 88.0669C45.0799 85.3169 46.64 83.8369 49.41 83.8669C52.06 83.8969 54 86.1469 53.66 88.8069C53.31 91.5869 51.57 92.9869 48.83 92.7869C46.03 92.5969 44.7699 90.7769 44.6899 88.0669Z" fill="#23D997"/>
<path d="M88.31 69.4369C85.56 69.1969 83.95 67.7569 83.81 64.9669C83.68 62.3069 85.84 60.1869 88.5 60.3869C91.28 60.5969 92.8501 62.2169 92.8001 64.9869C92.7501 67.7769 91.05 69.2069 88.31 69.4369Z" fill="#23D997"/>
<path d="M30.24 64.8369C30.03 67.5969 28.63 69.2869 25.8 69.3069C23 69.3269 21.36 67.7469 21.33 64.9369C21.3 62.1369 22.89 60.5069 25.7 60.4569C28.52 60.4269 29.97 62.0769 30.24 64.8369Z" fill="#23D997"/>
<path d="M69.4001 88.2969C69.2001 91.0269 67.8 92.7469 65 92.8269C62.23 92.9069 60.5801 91.3569 60.3401 88.5869C60.1101 85.9269 62.2001 83.7469 64.8701 83.8369C67.6701 83.9469 69.1201 85.5369 69.4001 88.2969Z" fill="#23D997"/>
<path d="M88.24 53.7969C85.48 53.5069 83.9 52.0369 83.81 49.2469C83.73 46.5869 85.93 44.5069 88.59 44.7469C91.37 45.0069 92.9 46.6669 92.81 49.4269C92.7 52.2169 90.96 53.6069 88.24 53.7969Z" fill="#23D997"/>
<path d="M25.93 44.7569C28.68 45.0969 30.28 46.6169 30.17 49.4169C30.06 52.2269 28.3599 53.7569 25.5799 53.6669C22.7699 53.5669 21.2399 51.8669 21.3299 49.0769C21.4199 46.2469 23.17 44.9069 25.93 44.7569Z" fill="#23D997"/>
<path d="M53.73 25.6769C53.44 28.6169 51.97 30.2669 49.15 30.2169C46.34 30.1669 44.7399 28.5169 44.7699 25.7169C44.8099 22.9069 46.4599 21.3169 49.2699 21.3369C52.1299 21.3569 53.47 23.1169 53.73 25.6769Z" fill="#23D997"/>
<path d="M69.3802 25.8369C69.1202 28.5869 67.6702 30.1669 64.8802 30.2669C62.2202 30.3569 60.1602 28.2169 60.3702 25.5569C60.6002 22.7869 62.2302 21.2569 64.9902 21.3269C67.7902 21.3969 69.1802 23.1069 69.3802 25.8369Z" fill="#23D997"/>
<path d="M33.6902 92.4669C31.2302 92.1869 29.5902 90.8969 29.5402 88.4369C29.4902 85.9769 31.0402 84.3869 33.4802 84.3269C35.9402 84.2669 37.5302 85.8169 37.6002 88.2669C37.6702 90.7269 36.0602 92.0569 33.6902 92.4669Z" fill="#23D997"/>
<path d="M57.1002 100.307C54.6802 100.027 53.0302 98.727 52.9802 96.257C52.9302 93.787 54.4901 92.1769 56.9401 92.1169C59.4101 92.0569 61.0101 93.617 61.0801 96.077C61.1501 98.567 59.5402 99.9069 57.1002 100.307Z" fill="#23D997"/>
<path d="M96.4202 52.9469C98.6102 53.2969 100.1 54.6169 100.23 57.0769C100.35 59.2969 98.0502 61.4669 95.8702 61.1669C93.4702 60.8369 92.0602 59.3469 92.0302 56.8869C92.0102 54.7869 94.1402 52.8869 96.4202 52.9469Z" fill="#23D997"/>
<path d="M22.0401 57.0369C21.6401 59.5669 20.3001 61.147 17.8401 61.077C15.4001 61.007 13.8601 59.4169 13.9201 56.9769C13.9801 54.5369 15.5701 53.0069 18.0201 53.0569C20.4901 53.1069 21.7201 54.7769 22.0401 57.0369Z" fill="#23D997"/>
<path d="M56.9702 13.8569C59.3802 14.1369 61.0102 15.4269 61.0602 17.8969C61.1002 20.3569 59.5602 21.9469 57.1102 21.9969C54.6502 22.0469 53.0602 20.4969 53.0002 18.0469C52.9402 15.5769 54.5402 14.2369 56.9702 13.8569Z" fill="#23D997"/>
<path d="M37.6601 25.7269C37.3901 28.1169 36.1101 29.7469 33.6601 29.7969C31.2101 29.8469 29.6201 28.3069 29.5701 25.8769C29.5101 23.4369 31.0501 21.8469 33.4901 21.7769C35.9401 21.7169 37.2801 23.2969 37.6601 25.7269Z" fill="#23D997"/>
<path d="M84.6301 88.4269C84.2301 90.8669 82.8802 92.4769 80.4002 92.4069C77.9502 92.3369 76.3801 90.7369 76.4401 88.2669C76.5001 85.8169 78.1102 84.2569 80.5802 84.3069C83.0602 84.3569 84.3501 86.0069 84.6301 88.4269Z" fill="#23D997"/>
<path d="M80.4301 21.6469C82.8501 21.9369 84.5001 23.2269 84.5501 25.6969C84.6001 28.1669 83.0401 29.7769 80.5801 29.8269C78.1101 29.8869 76.5101 28.3169 76.4401 25.8669C76.3801 23.3869 77.9901 22.0469 80.4301 21.6469Z" fill="#23D997"/>
<path d="M25.71 76.4269C28.24 76.8169 29.82 78.1569 29.76 80.6169C29.7 83.0569 28.11 84.5969 25.67 84.5369C23.24 84.4869 21.7 82.8969 21.74 80.4469C21.78 77.9769 23.45 76.7469 25.71 76.4269Z" fill="#23D997"/>
<path d="M88.3701 37.7469C85.9501 37.4569 84.31 36.1569 84.26 33.6869C84.22 31.2169 85.7801 29.6169 88.2301 29.5569C90.7001 29.5069 92.3001 31.0669 92.3601 33.5269C92.4201 36.0069 90.8101 37.3569 88.3701 37.7469Z" fill="#23D997"/>
<path d="M29.85 33.4869C29.57 35.9369 28.29 37.5669 25.84 37.6169C23.39 37.6669 21.8 36.1269 21.75 33.6969C21.69 31.2469 23.24 29.6669 25.67 29.6069C28.13 29.5369 29.45 31.1369 29.85 33.4869Z" fill="#23D997"/>
<path d="M92.47 80.6169C92.08 83.0169 90.76 84.5069 88.3 84.6269C86.07 84.7369 83.92 82.4369 84.22 80.2469C84.56 77.8469 86.06 76.3269 88.51 76.4569C90.93 76.5769 92.21 78.2169 92.47 80.6169Z" fill="#23D997"/>
<path d="M96.2502 37.6669C98.6502 37.9169 99.9602 39.2369 99.8402 41.6369C99.7202 44.0669 98.2002 45.2769 95.8302 45.1369C93.6002 45.0069 92.3802 43.6169 92.4102 41.3969C92.4502 38.9569 93.8802 37.7869 96.2502 37.6669Z" fill="#23D997"/>
<path d="M96.2402 76.5069C93.7402 76.2769 92.3701 75.0369 92.4001 72.6569C92.4401 70.2769 93.8201 68.9469 96.1901 68.9769C98.5701 69.0069 99.8802 70.3969 99.8702 72.7669C99.8602 75.1769 98.3902 76.2969 96.2402 76.5069Z" fill="#23D997"/>
<path d="M17.78 76.4269C15.42 76.1569 14.1299 74.8469 14.2599 72.4669C14.3999 70.0569 15.8999 68.8769 18.2499 69.0369C20.4599 69.1869 21.65 70.5569 21.61 72.7669C21.56 75.1869 20.13 76.3169 17.78 76.4269Z" fill="#23D997"/>
<path d="M72.6701 14.2269C75.0401 14.4069 76.4201 15.6469 76.3601 18.0569C76.3101 20.4769 74.8801 21.7369 72.5001 21.6669C70.2801 21.5969 69.0101 20.2869 68.9801 18.0669C68.9401 15.6469 70.3001 14.4069 72.6701 14.2269Z" fill="#23D997"/>
<path d="M18.17 45.1569C15.66 45.0069 14.25 43.8369 14.25 41.4269C14.26 39.0269 15.62 37.7269 18.01 37.7469C20.22 37.7669 21.51 39.0269 21.6 41.2469C21.71 43.6669 20.35 44.8769 18.17 45.1569Z" fill="#23D997"/>
<path d="M76.4502 96.1669C76.1702 98.7069 74.8302 100.007 72.4402 99.8769C70.0102 99.7369 68.8102 98.2169 68.9702 95.8469C69.1202 93.6169 70.5102 92.4169 72.7302 92.4469C75.1902 92.4869 76.2802 93.9869 76.4502 96.1669Z" fill="#23D997"/>
<path d="M41.5201 99.9269C38.9901 99.7069 37.6301 98.4569 37.7101 96.0469C37.7801 93.6269 39.2302 92.3869 41.6102 92.4769C43.8302 92.5669 45.0701 93.8869 45.1001 96.1169C45.1301 98.5669 43.6901 99.7069 41.5201 99.9269Z" fill="#23D997"/>
<path d="M45.1102 18.1169C44.8402 20.4769 43.5302 21.7669 41.1502 21.6369C38.7402 21.4969 37.5602 19.9969 37.7202 17.6469C37.8702 15.4369 39.2401 14.2469 41.4501 14.2869C43.8701 14.3369 45.0002 15.7669 45.1102 18.1169Z" fill="#23D997"/>
<path d="M103.93 68.2869C101.79 67.8669 100.47 66.6969 100.66 64.6369C100.84 62.6369 102.22 61.3869 104.3 61.5969C106.16 61.7869 107.34 63.0769 107.28 64.9669C107.2 67.0369 105.79 68.0369 103.93 68.2869Z" fill="#23D997"/>
<path d="M10.1201 68.1569C8.12013 67.9469 6.84009 66.8469 6.89009 64.7769C6.93009 62.8869 8.15011 61.6769 10.0401 61.6669C12.1101 61.6569 13.3701 62.9269 13.3201 64.9969C13.2901 66.8869 12.0601 67.9369 10.1201 68.1569Z" fill="#23D997"/>
<path d="M64.7501 6.83691C66.5701 6.95691 67.9001 7.89691 68.0801 9.79691C68.2801 11.8869 67.0701 13.2669 65.0201 13.3769C62.9501 13.4869 61.6301 12.2069 61.6001 10.1269C61.5801 8.23692 62.8001 7.14691 64.7501 6.83691Z" fill="#23D997"/>
<path d="M107.33 49.1369C107.13 51.1269 106.08 52.5169 104.02 52.5569C101.97 52.5969 100.67 51.2769 100.64 49.2269C100.62 47.3369 101.86 46.0669 103.71 45.9469C105.78 45.7969 106.94 47.0869 107.33 49.1369Z" fill="#23D997"/>
<path d="M10.0201 45.9769C11.8201 46.0869 13.1301 47.0069 13.3101 48.9069C13.5001 50.9769 12.3202 52.3469 10.2802 52.4569C8.22016 52.5669 6.92014 51.3069 6.89014 49.2369C6.87014 47.3469 8.06015 46.2669 10.0201 45.9769Z" fill="#23D997"/>
<path d="M52.5602 103.917C52.3502 105.897 51.2902 107.257 49.2402 107.267C47.2002 107.277 45.9202 105.977 45.9302 103.927C45.9302 102.047 47.1602 100.807 49.0102 100.707C51.0602 100.597 52.2102 101.867 52.5602 103.917Z" fill="#23D997"/>
<path d="M52.52 10.0869C52.37 11.9269 51.3899 13.2369 49.4999 13.3869C47.4199 13.5469 46.05 12.3169 45.97 10.2569C45.9 8.18689 47.2 6.88691 49.28 6.89691C51.18 6.90691 52.24 8.14691 52.52 10.0869Z" fill="#23D997"/>
<path d="M64.8602 107.337C62.8502 107.077 61.5202 105.967 61.5702 103.927C61.6202 101.897 62.9602 100.637 65.0002 100.717C66.8602 100.787 68.0902 102.027 68.1302 103.897C68.1802 105.937 66.8902 107.047 64.8602 107.337Z" fill="#23D997"/>
<path d="M96.1 91.3469C94.17 91.1869 93.09 90.1469 93.18 88.1669C93.26 86.3569 94.34 85.3669 96.14 85.3869C98.13 85.4069 99.17 86.5569 99.09 88.5269C99.02 90.3369 97.91 91.2269 96.1 91.3469Z" fill="#23D997"/>
<path d="M88.0301 14.9769C90.1301 15.0769 91.2701 16.0269 91.2501 18.0169C91.2301 19.8069 90.2201 20.8569 88.4301 20.8969C86.4701 20.9469 85.3801 19.8769 85.3701 17.9069C85.3701 16.0869 86.4701 15.2169 88.0301 14.9769Z" fill="#23D997"/>
<path d="M88.3502 93.1769C90.1602 93.3369 91.2401 94.2569 91.2701 96.0769C91.3001 98.0569 90.2202 99.1569 88.2402 99.1369C86.4402 99.1169 85.3902 98.0869 85.3502 96.2769C85.3102 94.2769 86.4302 93.2869 88.3502 93.1769Z" fill="#23D997"/>
<path d="M95.8702 22.7769C97.9602 22.8769 99.1101 23.8369 99.0901 25.8369C99.0701 27.6369 98.0601 28.6969 96.2501 28.7369C94.2801 28.7869 93.1702 27.7069 93.1702 25.7269C93.1702 23.8969 94.2702 23.0069 95.8702 22.7769Z" fill="#23D997"/>
<path d="M28.6901 18.0369C28.5101 19.8069 27.5902 20.8769 25.7802 20.8669C23.7902 20.8569 22.7502 19.6869 22.8702 17.7369C22.9802 15.9469 24.1202 14.9969 25.9102 15.0769C27.7102 15.1469 28.5801 16.2569 28.6901 18.0369Z" fill="#23D997"/>
<path d="M18.04 85.3969C19.82 85.5969 20.87 86.5469 20.84 88.3669C20.8 90.3869 19.6 91.3969 17.64 91.2569C15.83 91.1269 14.9 89.9569 15 88.1569C15.12 86.3269 16.25 85.4769 18.04 85.3969Z" fill="#23D997"/>
<path d="M83.28 10.0469C83.13 11.6669 82.2801 12.7869 80.6701 12.8669C78.8701 12.9569 77.74 11.8669 77.76 10.0669C77.78 8.44693 78.85 7.4269 80.47 7.4169C82.12 7.3969 83 8.46691 83.28 10.0469Z" fill="#23D997"/>
<path d="M36.34 10.1569C36.1 11.7369 35.25 12.8369 33.64 12.8469C31.87 12.8569 30.76 11.7269 30.87 9.95691C30.96 8.38691 32.05 7.36692 33.67 7.43692C35.28 7.49692 36.12 8.57692 36.34 10.1569Z" fill="#23D997"/>
<path d="M25.7401 93.2169C27.5301 93.3469 28.6401 94.2469 28.6601 96.0769C28.6901 98.0769 27.57 99.1569 25.58 99.0869C23.76 99.0169 22.79 97.9069 22.83 96.0969C22.87 94.2669 23.9501 93.3569 25.7401 93.2169Z" fill="#23D997"/>
<path d="M103.93 83.3569C102.21 83.1069 101.09 82.1769 101.18 80.3569C101.26 78.7469 102.31 77.7269 103.94 77.7469C105.74 77.7769 106.8 78.8769 106.72 80.6769C106.65 82.3169 105.57 83.1669 103.93 83.3569Z" fill="#23D997"/>
<path d="M9.89997 77.7469C11.63 77.9369 12.7399 78.7769 12.8099 80.3769C12.8799 82.1469 11.78 83.2769 10.01 83.2369C8.41995 83.2069 7.40997 82.1269 7.39997 80.5169C7.38997 78.8769 8.51997 78.0869 9.89997 77.7469Z" fill="#23D997"/>
<path d="M18.0401 28.7469C16.0801 28.5369 15.0101 27.6069 15.0301 25.7969C15.0501 23.8069 16.2301 22.7769 18.1801 22.8969C19.9701 23.0169 20.9 24.1569 20.83 25.9469C20.75 27.7869 19.5701 28.5769 18.0401 28.7469Z" fill="#23D997"/>
<path d="M103.78 36.4169C102.11 36.0669 101.02 35.0869 101.22 33.2969C101.39 31.7369 102.48 30.7269 104.09 30.8569C105.85 30.9869 106.88 32.1369 106.69 33.9169C106.53 35.4869 105.42 36.3169 103.78 36.4169Z" fill="#23D997"/>
<path d="M36.3602 104.097C36.0702 105.677 35.1902 106.737 33.5502 106.717C31.9302 106.697 30.8602 105.667 30.8502 104.047C30.8402 102.247 31.9701 101.157 33.7701 101.257C35.3701 101.357 36.2202 102.487 36.3602 104.097Z" fill="#23D997"/>
<path d="M80.3099 101.147C82.1899 101.417 83.32 102.327 83.24 104.127C83.17 105.717 82.1299 106.747 80.5299 106.737C78.7599 106.727 77.69 105.627 77.74 103.847C77.78 102.227 78.9399 101.457 80.3099 101.147Z" fill="#23D997"/>
<path d="M12.8502 33.6869C12.5502 35.2869 11.6502 36.3569 10.0102 36.2869C8.40016 36.2169 7.36019 35.1469 7.42019 33.5169C7.48019 31.9069 8.56015 30.8669 10.1901 30.9269C11.8301 30.9869 12.6702 32.0869 12.8502 33.6869Z" fill="#23D997"/>
<path d="M114.24 57.0069C114.08 58.5969 113.26 59.5069 111.75 59.4969C110.24 59.4769 109.34 58.5569 109.35 57.0469C109.37 55.5369 110.29 54.6369 111.8 54.6469C113.32 54.6569 114.09 55.6169 114.24 57.0069Z" fill="#23D997"/>
<path d="M74.82 111.537C74.77 112.967 74.14 113.797 72.93 113.907C71.55 114.037 70.63 113.307 70.58 111.887C70.53 110.477 71.37 109.687 72.78 109.707C74.04 109.727 74.6 110.577 74.82 111.537Z" fill="#23D997"/>
<path d="M54.6301 111.857C54.8501 110.167 55.7402 109.347 57.2402 109.467C58.7702 109.597 59.5302 110.627 59.3702 112.117C59.2302 113.437 58.3402 114.207 56.9902 114.177C55.4402 114.127 54.7601 113.147 54.6301 111.857Z" fill="#23D997"/>
<path d="M43.5101 111.797C43.3601 113.127 42.6501 113.957 41.2601 113.897C40.0601 113.837 39.3101 113.067 39.3101 111.857C39.3101 110.477 40.1401 109.677 41.5201 109.737C42.7301 109.777 43.3601 110.577 43.5101 111.797Z" fill="#23D997"/>
<path d="M43.4902 2.3369C43.3302 3.5369 42.6801 4.3569 41.4601 4.3669C40.0601 4.3769 39.2402 3.5069 39.3502 2.1169C39.4402 0.926902 40.2701 0.186886 41.5001 0.256886C42.7201 0.336886 43.3502 1.1369 43.4902 2.3369Z" fill="#23D997"/>
<path d="M59.3801 2.3269C59.1801 4.0169 58.2401 4.77692 56.7301 4.62692C55.3601 4.48692 54.6301 3.56689 54.7201 2.19689C54.8201 0.606895 55.8201 -0.123098 57.3401 0.0169019C58.7201 0.146902 59.3401 1.0969 59.3801 2.3269Z" fill="#23D997"/>
<path d="M74.8201 2.24693C74.5701 3.74693 73.7901 4.54692 72.4201 4.39692C71.2501 4.26692 70.5101 3.46693 70.5901 2.24693C70.6801 0.866928 71.5601 0.116928 72.9201 0.246928C74.1301 0.356928 74.6701 1.24693 74.8201 2.24693Z" fill="#23D997"/>
<path d="M4.39001 41.4269C4.24001 42.6269 3.6 43.4569 2.38 43.4769C0.979997 43.5069 0.150044 42.6469 0.240044 41.2569C0.320044 40.0669 1.13005 39.3169 2.37005 39.3769C3.60005 39.4269 4.23001 40.2269 4.39001 41.4269Z" fill="#23D997"/>
<path d="M113.94 41.2069C113.84 42.7469 113.15 43.5569 111.74 43.5569C110.52 43.5569 109.75 42.8669 109.65 41.6669C109.54 40.3069 110.22 39.4069 111.62 39.3069C113.05 39.1969 113.73 40.0469 113.94 41.2069Z" fill="#23D997"/>
<path d="M4.60012 57.0769C4.50012 58.5469 3.71012 59.4069 2.16012 59.3469C0.790119 59.2969 0.0100843 58.4769 8.43073e-05 57.1169C-0.00991569 55.5669 0.870119 54.7369 2.41012 54.7869C3.79012 54.8269 4.49012 55.6669 4.60012 57.0769Z" fill="#23D997"/>
<path d="M4.38994 72.7569C4.19994 73.9569 3.54995 74.7669 2.32995 74.7569C0.929947 74.7469 0.11993 73.8669 0.24993 72.4769C0.36993 71.2969 1.19993 70.5569 2.43993 70.6469C3.63993 70.7469 4.27994 71.5469 4.38994 72.7569Z" fill="#23D997"/>
<path d="M113.93 72.6569C113.84 74.0169 113.15 74.8269 111.75 74.8369C110.53 74.8369 109.76 74.1469 109.66 72.9469C109.55 71.5869 110.23 70.6769 111.63 70.5869C113.02 70.4969 113.77 71.2669 113.93 72.6569Z" fill="#23D997"/>
</svg>
